<?xml version="1.0" standalone="no"?>
<!DOCTYPE svg PUBLIC "-//W3C//DTD SVG 20010904//EN"
 "http://www.w3.org/TR/2001/REC-SVG-20010904/DTD/svg10.dtd">
<svg version="1.0" xmlns="http://www.w3.org/2000/svg"
 width="748.000000pt" height="748.000000pt" viewBox="0 0 748.000000 748.000000"
 preserveAspectRatio="xMidYMid meet">

<g transform="translate(0.000000,748.000000) scale(0.100000,-0.100000)"
fill="#000000" stroke="none">
<path d="M3390 7245 c-58 -7 -134 -18 -170 -25 -165 -30 -390 -126 -435 -185
-32 -42 -174 -135 -314 -206 -110 -55 -149 -89 -231 -198 -72 -96 -129 -201
-163 -299 -26 -78 -29 -101 -31 -222 0 -74 3 -159 7 -189 l8 -53 -26 20 c-30
24 -129 48 -235 58 -83 7 -255 -14 -375 -46 -250 -66 -314 -87 -476 -158 -145
-63 -317 -122 -355 -122 -44 0 -151 -68 -195 -122 -109 -139 -125 -272 -43
-378 45 -57 49 -75 35 -166 -39 -264 22 -491 217 -804 64 -103 204 -295 259
-356 98 -108 306 -213 422 -214 l46 -1 -68 -34 c-86 -43 -358 -248 -435 -329
-69 -72 -88 -105 -135 -246 -42 -124 -73 -288 -85 -455 -7 -91 -16 -137 -37
-190 -53 -139 -59 -166 -58 -270 0 -74 7 -125 26 -195 28 -102 50 -234 67
-393 16 -149 46 -267 94 -370 49 -103 87 -136 352 -301 58 -36 126 -97 255
-226 209 -211 200 -207 475 -244 487 -65 669 -57 872 39 90 43 257 156 338
229 86 78 210 267 247 379 7 20 31 22 76 6 24 -9 47 -34 93 -103 138 -205 299
-332 495 -388 70 -21 100 -23 288 -23 183 0 221 3 297 23 330 83 613 261 793
501 79 103 139 219 156 298 7 32 13 59 15 61 1 2 39 -8 84 -22 168 -54 394
-57 572 -10 114 30 310 126 424 207 109 77 278 245 336 333 114 172 188 368
219 582 18 117 20 164 14 317 -11 301 -41 452 -105 520 -10 11 -37 62 -60 114
-48 110 -96 194 -152 269 -45 60 -167 161 -239 197 -61 31 -68 44 -38 67 64
51 215 210 258 273 101 146 114 194 132 474 15 244 2 524 -31 656 -32 125 -99
253 -177 336 -57 60 -82 78 -180 126 -114 55 -114 56 -207 167 -162 192 -287
297 -390 326 -55 15 -89 8 -123 -26 -22 -22 -32 -25 -67 -20 -131 19 -203 18
-284 -2 -94 -24 -223 -82 -332 -149 -134 -83 -308 -212 -340 -253 -40 -50 -52
-44 -21 10 l23 41 -49 -19 c-26 -11 -56 -23 -65 -27 -24 -9 -23 -1 7 109 59
218 80 467 50 601 -32 143 -48 168 -199 306 -176 159 -292 233 -491 312 -240
95 -383 113 -635 82z m364 -65 c49 -6 107 -19 130 -29 41 -19 41 -19 11 -20
-24 -1 -3 -16 110 -73 174 -89 242 -134 329 -223 165 -167 222 -262 254 -420
15 -76 20 -87 29 -70 6 11 14 41 18 68 4 26 12 47 18 47 6 0 8 -28 3 -82 -21
-254 -23 -269 -43 -297 -12 -15 -37 -79 -57 -141 -20 -63 -41 -122 -47 -130
-12 -16 -12 -22 18 170 23 150 22 452 -2 538 -16 58 -26 71 -99 142 -259 249
-386 332 -581 380 -76 19 -106 22 -196 17 -69 -4 -152 -1 -235 9 -87 10 -179
13 -283 10 -151 -5 -156 -6 -229 -41 -41 -19 -76 -35 -79 -35 -14 0 26 34 61
52 193 99 601 159 870 128z m-583 -248 c16 -18 29 -38 29 -46 0 -26 -40 -63
-77 -74 -298 -80 -498 -148 -586 -200 -82 -49 -202 -166 -252 -247 -89 -142
-103 -245 -65 -489 32 -204 46 -247 116 -357 44 -68 198 -368 192 -374 -2 -2
-46 67 -98 152 -52 86 -119 194 -149 242 -125 198 -176 371 -168 571 3 84 10
133 26 180 62 178 158 333 263 422 130 111 325 208 467 232 52 9 97 19 100 22
3 3 43 4 89 2 80 -3 85 -4 113 -36z m2753 -732 c19 -19 19 -20 -5 -66 -35 -68
-105 -114 -173 -114 -28 0 -74 9 -102 19 -86 33 -140 36 -214 11 -99 -34 -212
-94 -350 -186 -99 -66 -126 -80 -129 -66 -4 21 57 76 169 152 118 80 129 98
34 54 -44 -20 -85 -40 -92 -46 -7 -6 -15 -9 -18 -6 -8 9 157 114 246 157 132
63 231 85 383 86 70 0 127 4 127 8 0 14 44 26 75 21 17 -3 39 -14 49 -24z
m219 -227 c83 -96 106 -115 202 -172 60 -36 138 -79 173 -97 35 -18 78 -45 94
-61 37 -35 109 -134 137 -190 30 -60 69 -208 87 -333 26 -178 16 -545 -16
-565 -4 -2 -10 118 -13 268 -7 299 -19 386 -61 422 -13 11 -35 55 -51 100 -37
110 -82 191 -126 228 -21 18 -86 51 -150 76 -97 38 -121 52 -165 96 -34 34
-57 69 -68 101 -9 27 -43 86 -75 130 -102 142 -95 141 32 -3z m-4326 -112 c31
-9 137 -90 129 -98 -2 -3 -23 5 -47 18 -61 31 -179 37 -289 14 -156 -32 -277
-77 -574 -214 -154 -72 -377 -115 -476 -92 -40 9 -47 8 -67 -11 -67 -63 -89
-234 -42 -333 26 -54 82 -95 130 -95 38 0 45 -14 69 -125 30 -136 70 -247 145
-400 78 -160 117 -215 273 -393 67 -78 122 -145 122 -151 0 -6 5 -11 11 -11 6
0 52 -38 103 -83 50 -46 121 -101 158 -121 37 -21 70 -42 74 -47 7 -13 -37
-11 -138 6 -212 34 -266 66 -395 232 -26 34 -84 108 -128 163 -108 137 -168
228 -220 335 -60 125 -121 311 -142 433 -10 56 -21 102 -25 102 -23 0 -32 -52
-30 -182 2 -77 -1 -138 -6 -138 -23 0 -29 176 -10 305 l11 81 -45 56 c-50 62
-75 135 -63 190 24 111 137 238 211 238 18 0 59 7 91 16 108 29 134 34 145 28
6 -4 8 -3 5 3 -9 14 18 24 40 16 10 -4 14 -2 10 4 -4 6 12 16 36 23 23 8 49
19 57 26 34 27 142 74 251 108 124 38 341 92 399 99 70 8 196 7 227 -2z m4910
-698 c-9 -76 -64 -235 -96 -279 l-30 -41 47 -114 c46 -111 47 -117 47 -219 0
-98 -2 -110 -32 -173 -39 -83 -113 -178 -172 -223 -64 -49 -77 -45 -46 15 13
27 43 96 66 153 37 93 41 111 41 193 1 94 -15 178 -58 302 -39 116 -35 146 38
255 l63 93 11 -55 c7 -30 12 -44 13 -30 0 14 -4 43 -9 65 -11 47 -5 56 53 84
64 32 71 29 64 -26z m103 -710 c0 -70 -82 -201 -238 -380 -101 -116 -82 -56
24 78 85 107 140 199 165 277 27 84 49 96 49 25z m-834 -478 c130 -23 162 -34
157 -54 -3 -13 6 -21 39 -30 69 -21 232 -108 281 -151 24 -22 64 -72 88 -112
24 -40 109 -151 189 -247 80 -95 150 -180 156 -187 16 -20 22 -17 26 11 4 35
17 35 42 2 20 -28 21 -39 20 -330 0 -326 -7 -396 -52 -552 -72 -251 -201 -440
-407 -600 -220 -170 -430 -263 -505 -223 -34 18 -37 44 -9 82 18 23 24 48 27
98 2 37 9 71 16 76 6 5 40 19 76 31 123 40 302 159 383 254 155 184 217 383
217 703 0 280 -37 440 -141 606 -22 35 -59 104 -84 153 -24 50 -57 103 -73
118 -18 17 -66 40 -128 61 -54 18 -124 43 -155 54 -183 69 -391 96 -536 71
-51 -9 -63 -15 -63 -30 0 -11 9 -21 23 -23 57 -13 138 -25 195 -32 35 -3 61
-8 59 -11 -5 -4 -276 20 -407 36 -105 13 -132 46 -62 74 50 20 187 56 291 77
127 26 23 24 -244 -4 -38 -4 -39 -4 -15 8 22 12 250 68 320 79 60 10 194 6
276 -8z m-2161 -129 c41 -27 68 -91 63 -151 -15 -178 -173 -253 -296 -141 -41
37 -56 76 -56 153 -1 66 1 74 29 103 16 17 50 37 75 45 55 18 151 13 185 -9z
m-1693 -206 c48 -6 124 -19 170 -29 46 -11 127 -27 181 -36 54 -9 97 -18 95
-20 -10 -9 -351 -13 -443 -6 -399 34 -695 -13 -882 -140 -77 -52 -244 -192
-296 -248 -27 -28 -62 -80 -78 -115 -58 -124 -100 -377 -119 -715 -10 -188 -8
-220 21 -324 17 -57 37 -272 39 -409 0 -25 2 -26 38 -21 43 6 72 -14 72 -49 0
-11 16 -76 35 -144 25 -84 34 -134 30 -156 -5 -29 -2 -35 27 -52 18 -10 47
-27 64 -36 158 -91 410 -273 463 -336 13 -16 37 -44 53 -62 40 -46 40 -108 1
-123 -55 -21 -126 -15 -176 14 -26 15 -51 36 -57 46 -5 11 -40 40 -77 65 -38
25 -135 100 -218 168 -82 68 -168 135 -190 148 -69 42 -124 99 -131 136 -3 18
-1 93 5 166 12 151 6 237 -32 438 -79 414 -74 822 13 1107 50 163 115 257 226
328 30 19 94 68 142 108 179 151 275 199 518 261 165 42 340 55 506 36z m13
-110 c-16 -4 -75 -15 -130 -24 -238 -40 -403 -88 -511 -148 -32 -18 -72 -40
-89 -47 -36 -18 -234 -217 -277 -278 -17 -26 -27 -51 -24 -60 5 -13 -1 -15
-41 -10 -60 7 -83 32 -83 95 0 61 25 96 146 202 234 207 303 242 526 264 150
14 535 20 483 6z m1041 -853 c8 -22 -87 -229 -310 -675 -298 -596 -325 -657
-458 -1027 -15 -44 -57 -138 -92 -210 -35 -71 -69 -147 -76 -167 -14 -46 -25
-48 -34 -6 -12 58 11 129 70 218 39 58 203 442 236 550 5 19 20 55 33 80 12
25 39 88 60 140 54 139 127 294 320 681 211 423 234 460 251 416z m-2536 -867
c17 -107 35 -253 40 -325 5 -71 12 -158 16 -192 4 -41 3 -63 -4 -63 -19 0 -34
104 -42 285 -5 128 -14 205 -29 265 -57 234 -71 402 -38 478 9 23 12 4 18
-113 4 -77 22 -228 39 -335z m4910 -404 c51 -22 130 -32 305 -41 105 -5 105
-5 50 -25 -90 -33 -200 -23 -330 31 -118 50 -185 82 -185 90 0 7 53 -11 160
-55z m-223 12 c63 -38 65 -50 24 -147 -76 -178 -235 -377 -405 -503 -164 -123
-432 -225 -672 -258 -168 -23 -427 29 -549 109 -118 78 -208 173 -315 335 -42
64 -55 76 -78 76 -46 0 -54 12 -47 62 11 71 17 76 62 51 21 -11 58 -45 83 -75
246 -297 334 -379 478 -446 54 -25 65 -27 188 -25 94 1 156 7 215 22 46 11
122 29 169 40 143 33 239 73 379 156 143 86 154 97 281 275 112 157 151 263
125 338 -10 29 -1 28 62 -10z m-2087 -271 c0 -24 -137 -286 -186 -354 -100
-140 -226 -248 -399 -339 -152 -80 -331 -123 -447 -108 -65 9 -138 72 -138
120 0 33 37 124 64 159 15 20 15 20 16 -3 0 -36 38 -102 66 -114 20 -10 28 -8
47 10 13 12 26 22 30 22 9 0 -3 -52 -14 -64 -24 -26 -8 -36 58 -36 74 0 192
29 266 66 174 86 345 265 497 519 30 49 65 100 79 112 26 25 61 31 61 10z
m-1547 -703 c141 -32 160 -43 66 -37 -128 7 -239 32 -239 55 0 14 59 9 173
-18z"/>
<path d="M6601 4974 c0 -11 3 -14 6 -6 3 7 2 16 -1 19 -3 4 -6 -2 -5 -13z"/>
<path d="M5851 3926 c2 -2 31 -6 64 -9 39 -4 54 -3 45 3 -14 9 -119 15 -109 6z"/>
<path d="M6049 3900 c41 -12 82 -25 92 -30 39 -22 31 -8 -10 15 -26 15 -66 27
-100 30 l-56 5 74 -20z"/>
<path d="M6200 3845 c0 -7 103 -56 107 -51 3 2 -4 9 -14 14 -31 17 -93 41 -93
37z"/>
<path d="M6325 3780 c3 -5 11 -10 16 -10 6 0 7 5 4 10 -3 6 -11 10 -16 10 -6
0 -7 -4 -4 -10z"/>
<path d="M6778 3084 c56 -66 82 -91 82 -78 0 5 -30 38 -67 74 l-66 65 51 -61z"/>
<path d="M1612 644 c-7 -8 -8 -14 -3 -14 10 0 25 19 20 25 -2 1 -10 -3 -17
-11z"/>
</g>
</svg>
